<svg 
 xmlns="http://www.w3.org/2000/svg"
 xmlns:xlink="http://www.w3.org/1999/xlink"
 width="32px" height="32px">
<path fill-rule="evenodd"  fill="rgb(55, 55, 55)"
 d="M17.224,16.030 L31.125,29.933 C31.458,30.266 31.458,30.807 31.125,31.140 C30.959,31.305 30.741,31.389 30.522,31.389 C30.304,31.389 30.086,31.305 29.918,31.140 L16.017,17.237 L2.117,31.139 C1.951,31.305 1.733,31.389 1.514,31.389 C1.296,31.389 1.077,31.305 0.910,31.139 C0.577,30.807 0.577,30.266 0.910,29.933 L14.811,16.030 L0.910,2.128 C0.577,1.795 0.577,1.254 0.910,0.922 C1.243,0.589 1.784,0.589 2.117,0.922 L16.017,14.824 L29.918,0.922 C30.251,0.589 30.792,0.589 31.125,0.922 C31.458,1.254 31.458,1.795 31.125,2.128 L17.224,16.030 Z"/>
</svg>